<?xml version="1.0" encoding="UTF-8"?>
<svg version="1.1" xmlns="http://www.w3.org/2000/svg" width="76" height="76">
<path d="M0 0 C0.94311035 0.17756836 1.8862207 0.35513672 2.85791016 0.53808594 C5.84410886 1.10193099 8.82827773 1.67579613 11.8125 2.25 C13.84753006 2.63608242 15.88268526 3.02150584 17.91796875 3.40625 C22.88429243 4.34655053 27.84882186 5.29583692 32.8125 6.25 C33.3075 8.23 33.3075 8.23 33.8125 10.25 C33.05324219 10.89066406 32.29398437 11.53132812 31.51171875 12.19140625 C23.9013143 18.52081779 23.9013143 18.52081779 19.8125 27.25 C19.48380859 32.3447169 19.95669381 37.12866368 20.69140625 42.171875 C20.82183873 44.41026458 20.46160177 46.11517641 19.8125 48.25 C20.8025 48.91 21.7925 49.57 22.8125 50.25 C23.97809456 58.11204956 22.83011055 65.9326853 19.8125 73.25 C17.54821037 75.51428963 12.90739439 74.55970547 9.85961914 74.5690918 C-6.76449247 74.28952824 -26.54435146 69.9951061 -40.1875 60.25 C-39.77275633 54.96201818 -38.83525386 52.13309282 -35.1875 48.25 C-33.2075 48.58 -31.2275 48.91 -29.1875 49.25 C-29.043125 48.0125 -28.89875 46.775 -28.75 45.5 C-28.47918671 43.20010801 -28.19032674 41.25824467 -27.4375 39.0625 C-27.04763022 36.23594412 -28.71939159 34.62155975 -30.1875 32.25 C-32.39206524 23.23132401 -31.50916185 14.34542071 -27.05078125 6.1640625 C-20.12360849 -4.19391822 -10.89196418 -2.11945406 0 0 Z M-21.9296875 8.5625 C-26.16885882 14.24983544 -25.91449641 21.45634389 -25.1875 28.25 C-24.2840461 31.23253193 -23.22401112 34.02597485 -21.96484375 36.875 C-20.85163173 40.27617038 -21.63523746 42.14547492 -23.1875 45.25 C-23.227492 47.24960012 -23.23096799 49.25047242 -23.1875 51.25 C-20.69011142 52.07134989 -18.19005195 52.88215748 -15.6875 53.6875 C-14.99140625 53.91759766 -14.2953125 54.14769531 -13.578125 54.38476562 C-8.77062172 55.92049584 -4.21198869 56.7577359 0.8125 57.25 C0.3175 56.651875 -0.1775 56.05375 -0.6875 55.4375 C-2.1875 53.25 -2.1875 53.25 -2.1875 50.25 C3.6875 54 3.6875 54 4.8125 56.25 C3.8225 56.745 3.8225 56.745 2.8125 57.25 C4.30993119 58.74743119 5.80074239 58.58202693 7.875 58.8125 C9.174375 58.956875 10.47375 59.10125 11.8125 59.25 C11.8125 60.24 11.8125 61.23 11.8125 62.25 C12.12338368 63.92099977 12.45330332 65.58871537 12.8125 67.25 C13.8025 67.25 14.7925 67.25 15.8125 67.25 C16.86649717 64.08800849 17.04695913 61.63539814 17.125 58.3125 C17.16238281 57.27222656 17.19976562 56.23195312 17.23828125 55.16015625 C16.71444706 51.57982164 15.46184635 50.59506499 12.8125 48.25 C12.96528033 45.80551474 13.74183013 44.37563533 14.9375 42.25 C16.05100518 39.7048453 15.49196438 38.91276583 14.8125 36.25 C14.14269788 29.01613713 13.90424344 23.03899038 18.328125 17.03125 C18.81796875 16.4434375 19.3078125 15.855625 19.8125 15.25 C21.1325 13.6 22.4525 11.95 23.8125 10.25 C12.5925 8.27 1.3725 6.29 -10.1875 4.25 C-9.60554665 8.32367344 -9.03643516 12.2478771 -8.1875 16.25 C-8.75339844 16.52714844 -9.31929687 16.80429687 -9.90234375 17.08984375 C-10.63582031 17.45207031 -11.36929687 17.81429688 -12.125 18.1875 C-12.85589844 18.54714844 -13.58679688 18.90679687 -14.33984375 19.27734375 C-16.14999027 20.11371827 -16.14999027 20.11371827 -17.1875 21.25 C-18.1775 17.62 -19.1675 13.99 -20.1875 10.25 C-18.13671875 9.2734375 -16.0859375 8.296875 -14.03515625 7.3203125 C-12.02417541 6.3815023 -12.02417541 6.3815023 -11.1875 4.25 C-16.43579552 3.5002435 -18.580433 4.7748614 -21.9296875 8.5625 Z M-14.1875 11.25 C-14.5175 12.57 -14.8475 13.89 -15.1875 15.25 C-14.1975 14.26 -13.2075 13.27 -12.1875 12.25 C-12.8475 11.92 -13.5075 11.59 -14.1875 11.25 Z " fill="#FFFFFF" transform="translate(41.1875,1.75)"/>
<path d="M0 0 C0.66 0.99 1.32 1.98 2 3 C3.65 2.67 5.3 2.34 7 2 C7.33 2.99 7.66 3.98 8 5 C7.484375 5.4125 6.96875 5.825 6.4375 6.25 C5.7259375 7.11625 5.7259375 7.11625 5 8 C5.22757731 10.16299211 5.22757731 10.16299211 6 12 C5.01 12.66 4.02 13.32 3 14 C2.34 12.68 1.68 11.36 1 10 C-0.65 10.33 -2.3 10.66 -4 11 C-4.625 9.125 -4.625 9.125 -5 7 C-4.34 6.34 -3.68 5.68 -3 5 C-3.3185177 2.89179203 -3.3185177 2.89179203 -4 1 C-2 0 -2 0 0 0 Z " fill="#FFFFFF" transform="translate(43,19)"/>
<path d="M0 0 C2.4375 0.75 2.4375 0.75 5 2 C5.8125 4.125 5.8125 4.125 6 6 C5.01 6.495 5.01 6.495 4 7 C1.375 5.5625 1.375 5.5625 -1 4 C-0.67 2.68 -0.34 1.36 0 0 Z " fill="#FFFFFF" transform="translate(31,48)"/>
<path d="M0 0 C0.99 0 1.98 0 3 0 C3.66 1.98 4.32 3.96 5 6 C4.01 6.66 3.02 7.32 2 8 C0.4375 5.6875 0.4375 5.6875 -1 3 C-0.67 2.01 -0.34 1.02 0 0 Z " fill="#FFFFFF" transform="translate(25,41)"/>
<path d="M0 0 C0.66 1.32 1.32 2.64 2 4 C-0.35438733 5.42944945 -1.48032433 6.08661261 -4.25 5.625 C-4.8275 5.41875 -5.405 5.2125 -6 5 C-5.67 4.01 -5.34 3.02 -5 2 C-2.4375 0.8125 -2.4375 0.8125 0 0 Z " fill="#FFFFFF" transform="translate(34,25)"/>
<path d="M0 0 C0.99 0.66 1.98 1.32 3 2 C2.67 3.98 2.34 5.96 2 8 C0.68 8 -0.64 8 -2 8 C-1.125 1.125 -1.125 1.125 0 0 Z " fill="#FFFFFF" transform="translate(26,31)"/>
</svg>
